<svg xmlns="http://www.w3.org/2000/svg" viewBox="0 0 184.35 183.01"><title>Asset 2</title><g id="Layer_2" data-name="Layer 2"><g id="Layer_1-2" data-name="Layer 1"><path d="M94,0c10.81.89,24.17.5,36.82,3.32,31.84,7.11,53.78,36.66,53.54,68.41-.2,26.77-11.95,47.62-33,62.81-22.53,16.22-46,31.11-69.23,46.4-6.69,4.42-11.77,1.54-11.92-6.54q-.28-14.47,0-29c.05-3.56-1-4.81-4.78-5.08C34.7,138.14,9.26,117.43,2.13,89.22c-9.77-38.7,15-78.88,54.3-86.69C67.87.25,79.88.86,94,0ZM83.41,164.72a18.79,18.79,0,0,0,2.81-1.17C105,151,124,138.65,142.56,125.67c17.08-12,27.7-28.48,29.26-49.45A58.38,58.38,0,0,0,118.3,13.64c-15.22-1.23-30.61-.74-45.91-.6-18.27.17-33.66,7.1-45.65,21C4.53,59.81,7.55,106.4,46.05,122.87a71.49,71.49,0,0,0,28.19,5.37c6.44,0,8.77,2.3,8.87,8.69.11,7.33,0,14.66,0,22C83.17,160.67,83.31,162.42,83.41,164.72Z"/></g></g></svg>