<svg xmlns="http://www.w3.org/2000/svg" viewBox="0 0 221.65 152.75"><title>Asset 3</title><g id="Layer_2" data-name="Layer 2"><g id="Layer_1-2" data-name="Layer 1"><path d="M32.34,22.21c-2.31,1.93-3.72,3-4.94,4.16-5.1,5-10.08,10.18-15.23,15.16C8.33,45.23,4.22,45.68,1.58,43s-2-6.72,1.78-10.5Q17.61,18.09,32,3.82c5-4.92,7.86-5,12.72-.16C54.52,13.39,64.35,23.11,74,33.06c1.67,1.73,3.19,4.64,3,6.87-.37,5-6.49,6.58-10.81,2.71C61,38,56.16,32.85,51.16,28c-1.51-1.48-3.13-2.85-4.71-4.27l-1.6.31c0,5.49,0,11,0,16.48.13,26,.66,52,.22,78-.17,9.92,7.86,20.75,19.17,21.78,3.14.28,6.3.57,9.46.58q23,.11,46,0c4,0,7,1.21,7.47,5.58.38,3.67-2.49,6.27-7.35,6.28-19.31,0-38.62.23-57.9-.38-14.1-.44-27.91-14.55-28.83-28.65-.46-7.13-.26-14.31-.26-21.47q0-36.24,0-72.47C32.78,27.66,32.55,25.59,32.34,22.21Z"/><path d="M176.37,130.5c.19-3,.36-4.47.36-5.91,0-29-.32-58,.19-86.94.28-15.75-11.07-26-25.42-25.37-15.79.71-31.64.17-47.46.16-1.5,0-3.5.47-4.39-.29-2.07-1.79-4.8-4.1-5-6.39-.13-1.68,3.17-3.87,5.26-5.41.89-.64,2.59-.21,3.92-.21q24.73,0,49.47,0c21.58.06,36.16,15.06,36,36.73-.25,29-.36,58-.49,86.93,0,1.91.3,3.82.56,6.88,2.35-1.94,3.92-3.06,5.27-4.39,5.21-5.16,10.28-10.45,15.52-15.58,3.22-3.15,7.32-3.47,9.78-1,2.61,2.58,2.27,6.16-1.17,9.63-10.2,10.3-20.5,20.49-30.68,30.8-3.17,3.2-6.72,3.5-9.72.61Q162.19,135.13,146.54,119c-2.66-2.73-3.46-6.45-.2-9.33,3.1-2.73,6.44-2,9.31.94,5,5.08,10.11,10.16,15.21,15.18C172.24,127.13,173.79,128.3,176.37,130.5Z"/></g></g></svg>